<?xml version="1.0" encoding="UTF-8" standalone="no"?>
<!-- Created with Inkscape (http://www.inkscape.org/) -->

<svg
   width="512"
   height="512"
   viewBox="0 0 135.46666 135.46667"
   version="1.1"
   id="svg1"
   inkscape:version="1.3.2 (091e20e, 2023-11-25, custom)"
   sodipodi:docname="rod_icon.svg"
   xmlns:inkscape="http://www.inkscape.org/namespaces/inkscape"
   xmlns:sodipodi="http://sodipodi.sourceforge.net/DTD/sodipodi-0.dtd"
   xmlns="http://www.w3.org/2000/svg"
   xmlns:svg="http://www.w3.org/2000/svg">
  <sodipodi:namedview
     id="namedview1"
     pagecolor="#505050"
     bordercolor="#eeeeee"
     borderopacity="1"
     inkscape:showpageshadow="0"
     inkscape:pageopacity="0"
     inkscape:pagecheckerboard="0"
     inkscape:deskcolor="#505050"
     inkscape:document-units="px"
     inkscape:zoom="1.4912879"
     inkscape:cx="297.39395"
     inkscape:cy="247.77242"
     inkscape:window-width="1920"
     inkscape:window-height="1051"
     inkscape:window-x="-9"
     inkscape:window-y="-9"
     inkscape:window-maximized="1"
     inkscape:current-layer="layer1" />
  <defs
     id="defs1" />
  <g
     inkscape:label="Layer 1"
     inkscape:groupmode="layer"
     id="layer1">
    <path
       style="color:#000000;opacity:1;fill:#000000;stroke-linecap:round;stroke-linejoin:round;-inkscape-stroke:none;paint-order:markers fill stroke"
       d="M 128.13086,6.8378906 C 110.20771,6.3812214 88.968771,23.188074 67.490234,46.626953 49.553921,66.20031 43.814365,73.110546 27.947524,96.446195 26.962722,97.894561 25.223321,95.387752 24.255758,96.826931 22.144649,99.967052 6.9031459,122.6529 4.8823085,125.72833 c -0.4012343,0.61054 1.4095313,3.24929 2.0200352,3.65058 0.610541,0.40123 4.4468723,2.00579 4.8481603,1.39528 2.026524,-3.08408 17.274163,-25.77877 19.39159,-28.92755 1.008268,-1.49937 -1.868136,-2.645879 -0.841227,-4.154996 C 46.088081,74.491194 51.708538,67.765406 69.441406,48.414062 90.750102,25.160525 111.89552,9.0724518 128.0625,9.484375 c 0.73097,0.019304 1.33896,-0.5580703 1.35742,-1.2890625 0.0193,-0.7309701 -0.55807,-1.338963 -1.28906,-1.3574219 z"
       id="path1"
       sodipodi:nodetypes="cssscccsssccc" />
    <circle
       style="opacity:1;fill:#000000;fill-opacity:1;stroke:none;stroke-width:2.64583;stroke-linecap:round;stroke-linejoin:round;stroke-dasharray:none;stroke-opacity:1;paint-order:markers fill stroke"
       id="path2"
       cx="30.516127"
       cy="98.822594"
       r="6.0322585" />
    <ellipse
       style="opacity:1;fill:none;fill-opacity:1;stroke:#000000;stroke-width:0.760117;stroke-linecap:round;stroke-linejoin:round;stroke-dasharray:none;stroke-opacity:1;paint-order:markers fill stroke"
       id="path3"
       cx="81.61673"
       cy="35.101364"
       rx="3.4659851"
       ry="2.1917257"
       transform="rotate(31.690223)" />
    <ellipse
       style="opacity:1;fill:none;fill-opacity:1;stroke:#000000;stroke-width:0.760117;stroke-linecap:round;stroke-linejoin:round;stroke-dasharray:none;stroke-opacity:1;paint-order:markers fill stroke"
       id="ellipse3"
       cx="24.411085"
       cy="-126.54705"
       rx="3.4659851"
       ry="2.1917257"
       transform="rotate(84.215972)" />
    <ellipse
       style="opacity:1;fill:none;fill-opacity:1;stroke:#000000;stroke-width:0.760117;stroke-linecap:round;stroke-linejoin:round;stroke-dasharray:none;stroke-opacity:1;paint-order:markers fill stroke"
       id="ellipse4"
       cx="86.474411"
       cy="-10.38025"
       rx="3.4659851"
       ry="2.1917257"
       transform="rotate(39.240751)" />
    <ellipse
       style="opacity:1;fill:none;fill-opacity:1;stroke:#000000;stroke-width:0.760117;stroke-linecap:round;stroke-linejoin:round;stroke-dasharray:none;stroke-opacity:1;paint-order:markers fill stroke"
       id="ellipse5"
       cx="82.050652"
       cy="-56.271954"
       rx="3.4659851"
       ry="2.1917257"
       transform="rotate(49.111963)" />
    <path
       style="opacity:0.683019;fill:none;fill-opacity:1;stroke:#000000;stroke-width:1.32292;stroke-linecap:round;stroke-linejoin:round;stroke-dasharray:none;stroke-opacity:1;paint-order:markers fill stroke"
       d="m 34.596773,97.048385 c 14.069698,-2.456109 18.245803,-11.404888 17.209678,-23.774193 13.720284,-4.013982 22.897091,-11.398931 22,-26.258062 10.147153,-2.502526 20.626907,-4.360638 23.419356,-21.112904 11.897113,1.871182 23.180873,1.425254 30.870963,-12.596774 9.39927,2.032636 -11.1992,44.24167 -0.70968,53.225805 9.39932,7.047995 -4.16301,39.142793 -18.80645,39.741943 -7.91568,0.32387 -14.520945,-12.524858 -11.887093,-20.58065"
       id="path5"
       sodipodi:nodetypes="ccccccac" />
  </g>
</svg>
