<?xml version="1.0" encoding="UTF-8" standalone="no"?>
<!-- Created with Inkscape (http://www.inkscape.org/) -->

<svg
   version="1.1"
   id="svg1"
   width="789.54175"
   height="56.20089"
   viewBox="0 0 789.54175 56.20089"
   sodipodi:docname="Fisherman.svg"
   inkscape:version="1.3.2 (091e20e, 2023-11-25, custom)"
   xmlns:inkscape="http://www.inkscape.org/namespaces/inkscape"
   xmlns:sodipodi="http://sodipodi.sourceforge.net/DTD/sodipodi-0.dtd"
   xmlns:xlink="http://www.w3.org/1999/xlink"
   xmlns="http://www.w3.org/2000/svg"
   xmlns:svg="http://www.w3.org/2000/svg">
  <defs
     id="defs1">
    <linearGradient
       id="linearGradient161"
       inkscape:collect="always">
      <stop
         style="stop-color:#ffd5d5;stop-opacity:1;"
         offset="0"
         id="stop162" />
      <stop
         style="stop-color:#ff5555;stop-opacity:1"
         offset="1"
         id="stop161" />
    </linearGradient>
    <inkscape:path-effect
       effect="powerclip"
       id="path-effect156"
       is_visible="true"
       lpeversion="1"
       inverse="true"
       flatten="false"
       hide_clip="false"
       message="Use fill-rule evenodd on &lt;b&gt;fill and stroke&lt;/b&gt; dialog if no flatten result after convert clip to paths." />
    <inkscape:path-effect
       effect="powerclip"
       id="path-effect153"
       is_visible="true"
       lpeversion="1"
       inverse="true"
       flatten="false"
       hide_clip="false"
       message="Use fill-rule evenodd on &lt;b&gt;fill and stroke&lt;/b&gt; dialog if no flatten result after convert clip to paths." />
    <inkscape:path-effect
       effect="powerclip"
       id="path-effect128"
       is_visible="true"
       lpeversion="1"
       inverse="true"
       flatten="false"
       hide_clip="false"
       message="Use fill-rule evenodd on &lt;b&gt;fill and stroke&lt;/b&gt; dialog if no flatten result after convert clip to paths." />
    <inkscape:path-effect
       effect="powerclip"
       id="path-effect125"
       is_visible="true"
       lpeversion="1"
       inverse="true"
       flatten="false"
       hide_clip="false"
       message="Use fill-rule evenodd on &lt;b&gt;fill and stroke&lt;/b&gt; dialog if no flatten result after convert clip to paths." />
    <inkscape:path-effect
       effect="powerclip"
       id="path-effect121"
       is_visible="true"
       lpeversion="1"
       inverse="true"
       flatten="false"
       hide_clip="false"
       message="Use fill-rule evenodd on &lt;b&gt;fill and stroke&lt;/b&gt; dialog if no flatten result after convert clip to paths." />
    <inkscape:path-effect
       effect="powerclip"
       id="path-effect118"
       is_visible="true"
       lpeversion="1"
       inverse="true"
       flatten="false"
       hide_clip="false"
       message="Use fill-rule evenodd on &lt;b&gt;fill and stroke&lt;/b&gt; dialog if no flatten result after convert clip to paths." />
    <inkscape:path-effect
       effect="powerclip"
       id="path-effect111"
       is_visible="true"
       lpeversion="1"
       inverse="true"
       flatten="false"
       hide_clip="false"
       message="Use fill-rule evenodd on &lt;b&gt;fill and stroke&lt;/b&gt; dialog if no flatten result after convert clip to paths." />
    <inkscape:path-effect
       effect="powerclip"
       id="path-effect109"
       is_visible="true"
       lpeversion="1"
       inverse="true"
       flatten="false"
       hide_clip="false"
       message="Use fill-rule evenodd on &lt;b&gt;fill and stroke&lt;/b&gt; dialog if no flatten result after convert clip to paths." />
    <inkscape:path-effect
       effect="powerclip"
       id="path-effect105"
       is_visible="true"
       lpeversion="1"
       inverse="true"
       flatten="false"
       hide_clip="false"
       message="Use fill-rule evenodd on &lt;b&gt;fill and stroke&lt;/b&gt; dialog if no flatten result after convert clip to paths." />
    <inkscape:path-effect
       effect="powerclip"
       id="path-effect84"
       is_visible="true"
       lpeversion="1"
       inverse="true"
       flatten="false"
       hide_clip="false"
       message="Use fill-rule evenodd on &lt;b&gt;fill and stroke&lt;/b&gt; dialog if no flatten result after convert clip to paths." />
    <clipPath
       clipPathUnits="userSpaceOnUse"
       id="clipPath84">
      <rect
         style="display:none;fill:#b3b3b3;fill-opacity:1;stroke:none;stroke-width:0.446045;stroke-linecap:round;stroke-linejoin:round;stroke-dasharray:none;stroke-opacity:1;paint-order:markers fill stroke"
         id="rect84"
         width="46.513264"
         height="3.0868027"
         x="1207.2512"
         y="84.904243"
         rx="0"
         ry="0"
         d="m 1207.2512,84.904243 h 46.5133 v 3.086803 h -46.5133 z" />
      <path
         id="lpe_path-effect84"
         style="fill:#b3b3b3;fill-opacity:1;stroke:none;stroke-width:0.446045;stroke-linecap:round;stroke-linejoin:round;stroke-dasharray:none;stroke-opacity:1;paint-order:markers fill stroke"
         class="powerclip"
         d="m 1202.4611,65.458527 h 56.0935 v 27.003469 h -56.0935 z m 4.7901,19.445716 v 3.086803 h 46.5133 v -3.086803 z" />
    </clipPath>
    <clipPath
       clipPathUnits="userSpaceOnUse"
       id="clipath_lpe_path-effect105">
      <rect
         style="display:none;fill:#b3b3b3;fill-opacity:1;stroke:none;stroke-width:0.446045;stroke-linecap:round;stroke-linejoin:round;stroke-dasharray:none;stroke-opacity:1;paint-order:markers fill stroke"
         id="rect105"
         width="46.513264"
         height="3.0868027"
         x="1207.2512"
         y="84.904243"
         rx="0"
         ry="0"
         d="m 1207.2512,84.904243 h 46.5133 v 3.086803 h -46.5133 z" />
      <path
         id="lpe_path-effect105"
         style="fill:#b3b3b3;fill-opacity:1;stroke:none;stroke-width:0.446045;stroke-linecap:round;stroke-linejoin:round;stroke-dasharray:none;stroke-opacity:1;paint-order:markers fill stroke"
         class="powerclip"
         d="m 1202.4611,65.458527 h 56.0935 v 27.003469 h -56.0935 z m 4.7901,19.445716 v 3.086803 h 46.5133 v -3.086803 z" />
    </clipPath>
    <clipPath
       clipPathUnits="userSpaceOnUse"
       id="clipath_lpe_path-effect109">
      <rect
         style="display:none;fill:#b3b3b3;fill-opacity:1;stroke:none;stroke-width:0.446045;stroke-linecap:round;stroke-linejoin:round;stroke-dasharray:none;stroke-opacity:1;paint-order:markers fill stroke"
         id="rect109"
         width="46.513264"
         height="3.0868027"
         x="1207.2512"
         y="84.904243"
         rx="0"
         ry="0"
         d="m 1207.2512,84.904243 h 46.5133 v 3.086803 h -46.5133 z" />
      <path
         id="lpe_path-effect109"
         style="fill:#b3b3b3;fill-opacity:1;stroke:none;stroke-width:0.446045;stroke-linecap:round;stroke-linejoin:round;stroke-dasharray:none;stroke-opacity:1;paint-order:markers fill stroke"
         class="powerclip"
         d="m 1202.4611,65.458527 h 56.0935 v 27.003469 h -56.0935 z m 4.7901,19.445716 v 3.086803 h 46.5133 v -3.086803 z" />
    </clipPath>
    <clipPath
       clipPathUnits="userSpaceOnUse"
       id="clipath_lpe_path-effect111">
      <rect
         style="display:none;fill:#b3b3b3;fill-opacity:1;stroke:none;stroke-width:0.446045;stroke-linecap:round;stroke-linejoin:round;stroke-dasharray:none;stroke-opacity:1;paint-order:markers fill stroke"
         id="rect111"
         width="46.513264"
         height="3.0868027"
         x="1207.2512"
         y="84.904243"
         rx="0"
         ry="0"
         d="m 1207.2512,84.904243 h 46.5133 v 3.086803 h -46.5133 z" />
      <path
         id="lpe_path-effect111"
         style="fill:#b3b3b3;fill-opacity:1;stroke:none;stroke-width:0.446045;stroke-linecap:round;stroke-linejoin:round;stroke-dasharray:none;stroke-opacity:1;paint-order:markers fill stroke"
         class="powerclip"
         d="m 1202.4611,65.458527 h 56.0935 v 27.003469 h -56.0935 z m 4.7901,19.445716 v 3.086803 h 46.5133 v -3.086803 z" />
    </clipPath>
    <clipPath
       clipPathUnits="userSpaceOnUse"
       id="clipath_lpe_path-effect118">
      <rect
         style="display:none;fill:#b3b3b3;fill-opacity:1;stroke:none;stroke-width:0.446045;stroke-linecap:round;stroke-linejoin:round;stroke-dasharray:none;stroke-opacity:1;paint-order:markers fill stroke"
         id="rect118"
         width="46.513264"
         height="3.0868027"
         x="1207.2512"
         y="84.904243"
         rx="0"
         ry="0"
         d="m 1207.2512,84.904243 h 46.5133 v 3.086803 h -46.5133 z" />
      <path
         id="lpe_path-effect118"
         style="fill:#b3b3b3;fill-opacity:1;stroke:none;stroke-width:0.446045;stroke-linecap:round;stroke-linejoin:round;stroke-dasharray:none;stroke-opacity:1;paint-order:markers fill stroke"
         class="powerclip"
         d="m 1202.4611,65.458527 h 56.0935 v 27.003469 h -56.0935 z m 4.7901,19.445716 v 3.086803 h 46.5133 v -3.086803 z" />
    </clipPath>
    <clipPath
       clipPathUnits="userSpaceOnUse"
       id="clipath_lpe_path-effect121">
      <rect
         style="display:none;fill:#b3b3b3;fill-opacity:1;stroke:none;stroke-width:0.446045;stroke-linecap:round;stroke-linejoin:round;stroke-dasharray:none;stroke-opacity:1;paint-order:markers fill stroke"
         id="rect121"
         width="46.513264"
         height="3.0868027"
         x="1207.2512"
         y="84.904243"
         rx="0"
         ry="0"
         d="m 1207.2512,84.904243 h 46.5133 v 3.086803 h -46.5133 z" />
      <path
         id="lpe_path-effect121"
         style="fill:#b3b3b3;fill-opacity:1;stroke:none;stroke-width:0.446045;stroke-linecap:round;stroke-linejoin:round;stroke-dasharray:none;stroke-opacity:1;paint-order:markers fill stroke"
         class="powerclip"
         d="m 1202.4611,65.458527 h 56.0935 v 27.003469 h -56.0935 z m 4.7901,19.445716 v 3.086803 h 46.5133 v -3.086803 z" />
    </clipPath>
    <clipPath
       clipPathUnits="userSpaceOnUse"
       id="clipath_lpe_path-effect125">
      <rect
         style="display:none;fill:#b3b3b3;fill-opacity:1;stroke:none;stroke-width:0.446045;stroke-linecap:round;stroke-linejoin:round;stroke-dasharray:none;stroke-opacity:1;paint-order:markers fill stroke"
         id="rect127"
         width="46.513264"
         height="3.0868027"
         x="1207.2512"
         y="84.904243"
         rx="0"
         ry="0"
         d="m 1207.2512,84.904243 h 46.5133 v 3.086803 h -46.5133 z" />
      <path
         id="lpe_path-effect125"
         style="fill:#b3b3b3;fill-opacity:1;stroke:none;stroke-width:0.446045;stroke-linecap:round;stroke-linejoin:round;stroke-dasharray:none;stroke-opacity:1;paint-order:markers fill stroke"
         class="powerclip"
         d="m 1202.4611,65.458527 h 56.0935 v 27.003469 h -56.0935 z m 4.7901,19.445716 v 3.086803 h 46.5133 v -3.086803 z" />
    </clipPath>
    <clipPath
       clipPathUnits="userSpaceOnUse"
       id="clipath_lpe_path-effect128">
      <rect
         style="display:none;fill:#b3b3b3;fill-opacity:1;stroke:none;stroke-width:0.446045;stroke-linecap:round;stroke-linejoin:round;stroke-dasharray:none;stroke-opacity:1;paint-order:markers fill stroke"
         id="rect128"
         width="46.513264"
         height="3.0868027"
         x="1207.2512"
         y="84.904243"
         rx="0"
         ry="0"
         d="m 1207.2512,84.904243 h 46.5133 v 3.086803 h -46.5133 z" />
      <path
         id="lpe_path-effect128"
         style="fill:#b3b3b3;fill-opacity:1;stroke:none;stroke-width:0.446045;stroke-linecap:round;stroke-linejoin:round;stroke-dasharray:none;stroke-opacity:1;paint-order:markers fill stroke"
         class="powerclip"
         d="m 1202.4611,65.458527 h 56.0935 v 27.003469 h -56.0935 z m 4.7901,19.445716 v 3.086803 h 46.5133 v -3.086803 z" />
    </clipPath>
    <clipPath
       clipPathUnits="userSpaceOnUse"
       id="clipath_lpe_path-effect153">
      <rect
         style="display:none;fill:#b3b3b3;fill-opacity:1;stroke:none;stroke-width:0.446045;stroke-linecap:round;stroke-linejoin:round;stroke-dasharray:none;stroke-opacity:1;paint-order:markers fill stroke"
         id="rect153"
         width="46.513264"
         height="3.0868027"
         x="1207.2512"
         y="84.904243"
         rx="0"
         ry="0"
         d="m 1207.2512,84.904243 h 46.5133 v 3.086803 h -46.5133 z" />
      <path
         id="lpe_path-effect153"
         style="fill:#b3b3b3;fill-opacity:1;stroke:none;stroke-width:0.446045;stroke-linecap:round;stroke-linejoin:round;stroke-dasharray:none;stroke-opacity:1;paint-order:markers fill stroke"
         class="powerclip"
         d="m 1202.2662,65.263632 h 56.4833 v 27.393259 h -56.4833 z m 4.985,19.640611 v 3.086803 h 46.5133 v -3.086803 z" />
    </clipPath>
    <clipPath
       clipPathUnits="userSpaceOnUse"
       id="clipath_lpe_path-effect156">
      <rect
         style="display:none;fill:#b3b3b3;fill-opacity:1;stroke:none;stroke-width:0.446045;stroke-linecap:round;stroke-linejoin:round;stroke-dasharray:none;stroke-opacity:1;paint-order:markers fill stroke"
         id="rect156"
         width="46.513264"
         height="3.0868027"
         x="1207.2512"
         y="84.904243"
         rx="0"
         ry="0"
         d="m 1207.2512,84.904243 h 46.5133 v 3.086803 h -46.5133 z" />
      <path
         id="lpe_path-effect156"
         style="fill:#b3b3b3;fill-opacity:1;stroke:none;stroke-width:0.446045;stroke-linecap:round;stroke-linejoin:round;stroke-dasharray:none;stroke-opacity:1;paint-order:markers fill stroke"
         class="powerclip"
         d="m 1202.2334,65.230907 h 56.5488 v 27.458709 h -56.5488 z m 5.0178,19.673336 v 3.086803 h 46.5133 v -3.086803 z" />
    </clipPath>
    <linearGradient
       inkscape:collect="always"
       xlink:href="#linearGradient161"
       id="linearGradient162"
       x1="1643.0741"
       y1="-11.712698"
       x2="1686.7262"
       y2="-11.712698"
       gradientUnits="userSpaceOnUse" />
  </defs>
  <sodipodi:namedview
     id="namedview1"
     pagecolor="#505050"
     bordercolor="#eeeeee"
     borderopacity="1"
     inkscape:showpageshadow="0"
     inkscape:pageopacity="0"
     inkscape:pagecheckerboard="0"
     inkscape:deskcolor="#505050"
     inkscape:zoom="7.2"
     inkscape:cx="1543.4722"
     inkscape:cy="495.76389"
     inkscape:window-width="1920"
     inkscape:window-height="1051"
     inkscape:window-x="-9"
     inkscape:window-y="-9"
     inkscape:window-maximized="1"
     inkscape:current-layer="g149"
     inkscape:export-bgcolor="#ffffff00" />
  <g
     inkscape:groupmode="layer"
     id="layer4"
     inkscape:label="Tentacle"
     transform="rotate(90,1006.7918,-623.73357)">
    <path
       id="rect68"
       style="fill:url(#linearGradient162);fill-opacity:1;stroke:#000000;stroke-width:0.847884;stroke-linecap:round;stroke-linejoin:round;paint-order:markers fill stroke"
       d="m 1643.498,339.09101 c 0,-143.37209 0.5083,-300.028301 0.5083,-445.66424 1.2009,-102.51147 6.2275,-199.80075 14.0849,-283.44929 3.6989,-28.8892 11.8875,-11.98161 13.2577,-1.53956 8.5454,82.49063 13.6497,179.411 14.8122,281.87859 0,151.716946 0.1412,301.30978 0.1412,448.7745 0,24.12291 -9.5452,43.54324 -21.4021,43.54324 -11.8568,0 -21.4022,-19.42033 -21.4022,-43.54324 z"
       sodipodi:nodetypes="sccccsss" />
    <g
       id="g103"
       inkscape:label="Sucker"
       style="fill:#fffefe;fill-opacity:1;stroke:#000000;stroke-opacity:1"
       transform="matrix(0,-1.1081566,0.95207304,0,1571.7718,1651.7166)">
      <path
         style="fill:#ffaaaa;fill-opacity:1;stroke:#000000;stroke-width:1;stroke-linecap:round;stroke-linejoin:round;stroke-dasharray:none;stroke-opacity:1;paint-order:markers fill stroke"
         id="rect80"
         width="45.093567"
         height="16.003469"
         x="1207.9611"
         y="70.958527"
         rx="0"
         ry="0"
         clip-path="url(#clipPath84)"
         inkscape:path-effect="#path-effect84"
         sodipodi:type="rect"
         d="m 1207.9611,70.958527 h 45.0935 v 16.003469 h -45.0935 z" />
      <path
         id="ellipse78"
         style="fill:#ffd5d5;fill-opacity:1;stroke:#000000;stroke-width:1;stroke-linecap:round;stroke-linejoin:round;stroke-opacity:1;paint-order:markers fill stroke"
         transform="matrix(0.99964701,0.02656782,-0.02604805,0.99966069,0,0)"
         d="m 1254.4253,38.300472 a 22.48501,8.788516 0 0 1 -22.485,8.788516 22.48501,8.788516 0 0 1 -22.485,-8.788516 22.48501,8.788516 0 0 1 22.485,-8.788516 22.48501,8.788516 0 0 1 22.485,8.788516 z" />
    </g>
    <g
       id="g104"
       inkscape:label="Sucker"
       style="fill:#fffefe;fill-opacity:1;stroke:#000000;stroke-opacity:1"
       transform="matrix(0,-1.1081566,0.95207304,0,1571.7718,1580.7586)">
      <path
         style="fill:#ffaaaa;fill-opacity:1;stroke:#000000;stroke-width:1;stroke-linecap:round;stroke-linejoin:round;stroke-dasharray:none;stroke-opacity:1;paint-order:markers fill stroke"
         id="path103"
         width="45.093567"
         height="16.003469"
         x="1207.9611"
         y="70.958527"
         rx="0"
         ry="0"
         clip-path="url(#clipath_lpe_path-effect105)"
         inkscape:path-effect="#path-effect105"
         sodipodi:type="rect"
         d="m 1207.9611,70.958527 h 45.0935 v 16.003469 h -45.0935 z" />
      <path
         id="path104"
         style="fill:#ffd5d5;fill-opacity:1;stroke:#000000;stroke-width:1;stroke-linecap:round;stroke-linejoin:round;stroke-opacity:1;paint-order:markers fill stroke"
         transform="matrix(0.99964701,0.02656782,-0.02604805,0.99966069,0,0)"
         d="m 1254.4253,38.300472 a 22.48501,8.788516 0 0 1 -22.485,8.788516 22.48501,8.788516 0 0 1 -22.485,-8.788516 22.48501,8.788516 0 0 1 22.485,-8.788516 22.48501,8.788516 0 0 1 22.485,8.788516 z" />
    </g>
    <g
       id="g106"
       inkscape:label="Sucker"
       style="fill:#fffefe;fill-opacity:1;stroke:#000000;stroke-opacity:1"
       transform="matrix(0,-1.1081566,0.95207304,0,1571.7718,1501.7664)">
      <path
         style="fill:#ffaaaa;fill-opacity:1;stroke:#000000;stroke-width:1;stroke-linecap:round;stroke-linejoin:round;stroke-dasharray:none;stroke-opacity:1;paint-order:markers fill stroke"
         id="path105"
         width="45.093567"
         height="16.003469"
         x="1207.9611"
         y="70.958527"
         rx="0"
         ry="0"
         clip-path="url(#clipath_lpe_path-effect109)"
         inkscape:path-effect="#path-effect109"
         sodipodi:type="rect"
         d="m 1207.9611,70.958527 h 45.0935 v 16.003469 h -45.0935 z" />
      <path
         id="path106"
         style="fill:#ffd5d5;fill-opacity:1;stroke:#000000;stroke-width:1;stroke-linecap:round;stroke-linejoin:round;stroke-opacity:1;paint-order:markers fill stroke"
         transform="matrix(0.99964701,0.02656782,-0.02604805,0.99966069,0,0)"
         d="m 1254.4253,38.300472 a 22.48501,8.788516 0 0 1 -22.485,8.788516 22.48501,8.788516 0 0 1 -22.485,-8.788516 22.48501,8.788516 0 0 1 22.485,-8.788516 22.48501,8.788516 0 0 1 22.485,8.788516 z" />
    </g>
    <g
       id="g108"
       inkscape:label="Sucker"
       style="fill:#fffefe;fill-opacity:1;stroke:#000000;stroke-opacity:1"
       transform="matrix(0,-1.1081566,0.95207304,0,1571.7718,1428.3458)">
      <path
         style="fill:#ffaaaa;fill-opacity:1;stroke:#000000;stroke-width:1;stroke-linecap:round;stroke-linejoin:round;stroke-dasharray:none;stroke-opacity:1;paint-order:markers fill stroke"
         id="path107"
         width="45.093567"
         height="16.003469"
         x="1207.9611"
         y="70.958527"
         rx="0"
         ry="0"
         clip-path="url(#clipath_lpe_path-effect111)"
         inkscape:path-effect="#path-effect111"
         sodipodi:type="rect"
         d="m 1207.9611,70.958527 h 45.0935 v 16.003469 h -45.0935 z" />
      <path
         id="path108"
         style="fill:#ffd5d5;fill-opacity:1;stroke:#000000;stroke-width:1;stroke-linecap:round;stroke-linejoin:round;stroke-opacity:1;paint-order:markers fill stroke"
         transform="matrix(0.99964701,0.02656782,-0.02604805,0.99966069,0,0)"
         d="m 1254.4253,38.300472 a 22.48501,8.788516 0 0 1 -22.485,8.788516 22.48501,8.788516 0 0 1 -22.485,-8.788516 22.48501,8.788516 0 0 1 22.485,-8.788516 22.48501,8.788516 0 0 1 22.485,8.788516 z" />
    </g>
    <g
       id="g112"
       inkscape:label="Sucker"
       style="fill:#fffefe;fill-opacity:1;stroke:#000000;stroke-opacity:1"
       transform="matrix(0,-1.1081566,0.95207304,0,1571.7718,1353.7377)">
      <path
         style="fill:#ffaaaa;fill-opacity:1;stroke:#000000;stroke-width:1;stroke-linecap:round;stroke-linejoin:round;stroke-dasharray:none;stroke-opacity:1;paint-order:markers fill stroke"
         id="path111"
         width="45.093567"
         height="16.003469"
         x="1207.9611"
         y="70.958527"
         rx="0"
         ry="0"
         clip-path="url(#clipath_lpe_path-effect118)"
         inkscape:path-effect="#path-effect118"
         sodipodi:type="rect"
         d="m 1207.9611,70.958527 h 45.0935 v 16.003469 h -45.0935 z" />
      <path
         id="path112"
         style="fill:#ffd5d5;fill-opacity:1;stroke:#000000;stroke-width:1;stroke-linecap:round;stroke-linejoin:round;stroke-opacity:1;paint-order:markers fill stroke"
         d="m 1254.4253,38.300472 a 22.48501,8.788516 0 0 1 -22.485,8.788516 22.48501,8.788516 0 0 1 -22.485,-8.788516 22.48501,8.788516 0 0 1 22.485,-8.788516 22.48501,8.788516 0 0 1 22.485,8.788516 z"
         transform="matrix(0.99964701,0.02656782,-0.02604805,0.99966069,0,0)" />
    </g>
    <g
       id="g117"
       inkscape:label="Sucker"
       style="fill:#fffefe;fill-opacity:1;stroke:#000000;stroke-opacity:1"
       transform="matrix(0,-1.1081566,0.95207304,0,1571.7718,1272.6217)">
      <path
         style="fill:#ffaaaa;fill-opacity:1;stroke:#000000;stroke-width:1;stroke-linecap:round;stroke-linejoin:round;stroke-dasharray:none;stroke-opacity:1;paint-order:markers fill stroke"
         id="path113"
         width="45.093567"
         height="16.003469"
         x="1207.9611"
         y="70.958527"
         rx="0"
         ry="0"
         clip-path="url(#clipath_lpe_path-effect121)"
         inkscape:path-effect="#path-effect121"
         sodipodi:type="rect"
         d="m 1207.9611,70.958527 h 45.0935 v 16.003469 h -45.0935 z" />
      <path
         id="path117"
         style="fill:#ffd5d5;fill-opacity:1;stroke:#000000;stroke-width:1;stroke-linecap:round;stroke-linejoin:round;stroke-opacity:1;paint-order:markers fill stroke"
         transform="matrix(0.99964701,0.02656782,-0.02604805,0.99966069,0,0)"
         d="m 1254.4253,38.300472 a 22.48501,8.788516 0 0 1 -22.485,8.788516 22.48501,8.788516 0 0 1 -22.485,-8.788516 22.48501,8.788516 0 0 1 22.485,-8.788516 22.48501,8.788516 0 0 1 22.485,8.788516 z" />
    </g>
    <g
       id="g122"
       inkscape:label="Sucker"
       style="fill:#fffefe;fill-opacity:1;stroke:#000000;stroke-opacity:1"
       transform="matrix(0,-1.1081566,0.95207304,0,1572.3008,1197.4289)">
      <path
         style="fill:#ffaaaa;fill-opacity:1;stroke:#000000;stroke-width:1;stroke-linecap:round;stroke-linejoin:round;stroke-dasharray:none;stroke-opacity:1;paint-order:markers fill stroke"
         id="path121"
         width="45.093567"
         height="16.003469"
         x="1207.9611"
         y="70.958527"
         rx="0"
         ry="0"
         clip-path="url(#clipath_lpe_path-effect125)"
         inkscape:path-effect="#path-effect125"
         sodipodi:type="rect"
         d="m 1207.9611,70.958527 h 45.0935 v 16.003469 h -45.0935 z" />
      <path
         id="path122"
         style="fill:#ffd5d5;fill-opacity:1;stroke:#000000;stroke-width:1;stroke-linecap:round;stroke-linejoin:round;stroke-opacity:1;paint-order:markers fill stroke"
         d="m 1254.4253,38.300472 a 22.48501,8.788516 0 0 1 -22.485,8.788516 22.48501,8.788516 0 0 1 -22.485,-8.788516 22.48501,8.788516 0 0 1 22.485,-8.788516 22.48501,8.788516 0 0 1 22.485,8.788516 z"
         transform="matrix(0.99964701,0.02656782,-0.02604805,0.99966069,0,0)" />
    </g>
    <g
       id="g124"
       inkscape:label="Sucker"
       style="fill:#fffefe;fill-opacity:1;stroke:#000000;stroke-width:1;stroke-dasharray:none;stroke-opacity:1"
       transform="matrix(0,-1.1081566,0.95207304,0,1576.8475,1120.0066)">
      <path
         style="fill:#ffaaaa;fill-opacity:1;stroke:#000000;stroke-width:1;stroke-linecap:round;stroke-linejoin:round;stroke-dasharray:none;stroke-opacity:1;paint-order:markers fill stroke"
         id="path123"
         width="45.093567"
         height="16.003469"
         x="1207.9611"
         y="70.958527"
         rx="0"
         ry="0"
         clip-path="url(#clipath_lpe_path-effect128)"
         inkscape:path-effect="#path-effect128"
         sodipodi:type="rect"
         d="m 1207.9611,70.958527 h 45.0935 v 16.003469 h -45.0935 z" />
      <path
         id="path124"
         style="fill:#ffd5d5;fill-opacity:1;stroke:#000000;stroke-width:1;stroke-linecap:round;stroke-linejoin:round;stroke-dasharray:none;stroke-opacity:1;paint-order:markers fill stroke"
         transform="matrix(0.99964701,0.02656782,-0.02604805,0.99966069,0,0)"
         d="m 1254.4253,38.300472 a 22.48501,8.788516 0 0 1 -22.485,8.788516 22.48501,8.788516 0 0 1 -22.485,-8.788516 22.48501,8.788516 0 0 1 22.485,-8.788516 22.48501,8.788516 0 0 1 22.485,8.788516 z" />
    </g>
    <g
       id="g150"
       inkscape:label="Sucker"
       style="fill:#fffefe;fill-opacity:1;stroke:#000000;stroke-width:1.38979;stroke-dasharray:none;stroke-opacity:1"
       transform="matrix(0,-0.7973567,0.68504921,0,1601.8584,675.20367)">
      <path
         style="fill:#ffaaaa;fill-opacity:1;stroke:#000000;stroke-width:1.38979;stroke-linecap:round;stroke-linejoin:round;stroke-dasharray:none;stroke-opacity:1;paint-order:markers fill stroke"
         id="path128"
         width="45.093567"
         height="16.003469"
         x="1207.9611"
         y="70.958527"
         rx="0"
         ry="0"
         clip-path="url(#clipath_lpe_path-effect153)"
         inkscape:path-effect="#path-effect153"
         sodipodi:type="rect"
         d="m 1207.9611,70.958527 h 45.0935 v 16.003469 h -45.0935 z" />
      <path
         id="path149"
         style="fill:#ffd5d5;fill-opacity:1;stroke:#000000;stroke-width:1.38979;stroke-linecap:round;stroke-linejoin:round;stroke-dasharray:none;stroke-opacity:1;paint-order:markers fill stroke"
         transform="matrix(0.99964701,0.02656782,-0.02604805,0.99966069,0,0)"
         d="m 1254.4253,38.300472 a 22.48501,8.788516 0 0 1 -22.485,8.788516 22.48501,8.788516 0 0 1 -22.485,-8.788516 22.48501,8.788516 0 0 1 22.485,-8.788516 22.48501,8.788516 0 0 1 22.485,8.788516 z" />
    </g>
    <g
       id="g155"
       inkscape:label="Sucker"
       style="fill:#fffefe;fill-opacity:1;stroke:#000000;stroke-width:1.45524;stroke-dasharray:none;stroke-opacity:1"
       transform="matrix(0,-0.76149519,0.65423878,0,1607.5453,575.93553)">
      <path
         style="fill:#ffaaaa;fill-opacity:1;stroke:#000000;stroke-width:1.45524;stroke-linecap:round;stroke-linejoin:round;stroke-dasharray:none;stroke-opacity:1;paint-order:markers fill stroke"
         id="path154"
         width="45.093567"
         height="16.003469"
         x="1207.9611"
         y="70.958527"
         rx="0"
         ry="0"
         clip-path="url(#clipath_lpe_path-effect156)"
         inkscape:path-effect="#path-effect156"
         sodipodi:type="rect"
         d="m 1207.9611,70.958527 h 45.0935 v 16.003469 h -45.0935 z" />
      <path
         id="path155"
         style="fill:#ffd5d5;fill-opacity:1;stroke:#000000;stroke-width:1.45524;stroke-linecap:round;stroke-linejoin:round;stroke-dasharray:none;stroke-opacity:1;paint-order:markers fill stroke"
         transform="matrix(0.99964701,0.02656782,-0.02604805,0.99966069,0,0)"
         d="m 1254.4253,38.300472 a 22.48501,8.788516 0 0 1 -22.485,8.788516 22.48501,8.788516 0 0 1 -22.485,-8.788516 22.48501,8.788516 0 0 1 22.485,-8.788516 22.48501,8.788516 0 0 1 22.485,8.788516 z" />
    </g>
  </g>
</svg>
